<?xml version="1.0" encoding="utf-8"?>
<!-- Generator: Adobe Illustrator 24.2.1, SVG Export Plug-In . SVG Version: 6.00 Build 0)  -->
<svg version="1.1" id="Layer_1" xmlns="http://www.w3.org/2000/svg" xmlns:xlink="http://www.w3.org/1999/xlink" x="0px" y="0px"
	 viewBox="0 0 4285.2 751.7" style="enable-background:new 0 0 4285.2 751.7;" xml:space="preserve">
<style type="text/css">
	.st0{fill:#EAEAEE;}
</style>
<g>
	<path class="st0" d="M1157.5,407.2H967.8v142.1h221.8v64.1h-302V151.5h299.8v64.7H967.8v127.5h189.7V407.2z"/>
	<path class="st0" d="M1660.1,442.1v171.3h-80.3V151.5h176.7c51.6,0,92.6,13.4,122.9,40.3c30.4,26.9,45.5,62.5,45.5,106.7
		c0,45.3-14.9,80.6-44.6,105.8c-29.7,25.2-71.3,37.8-124.8,37.8H1660.1z M1660.1,377.4h96.4c28.6,0,50.3-6.7,65.4-20.2
		c15-13.4,22.5-32.8,22.5-58.2c0-24.9-7.6-44.9-22.8-59.8c-15.2-14.9-36.2-22.6-62.8-23h-98.7V377.4z"/>
	<path class="st0" d="M2688.6,394.5c0,45.3-7.8,85-23.5,119.1c-15.7,34.2-38,60.4-67.1,78.7c-29.1,18.3-62.6,27.4-100.4,27.4
		c-37.4,0-70.8-9.1-100.1-27.4c-29.3-18.3-51.9-44.4-67.9-78.2c-16-33.8-24.1-72.9-24.3-117.1v-26c0-45,8-84.8,23.9-119.3
		c16-34.5,38.5-60.9,67.6-79.2c29.1-18.3,62.5-27.4,100.1-27.4c37.7,0,71,9,100.1,27.1c29.1,18.1,51.6,44.1,67.4,78
		c15.9,34,23.9,73.5,24.1,118.5V394.5z M2608.4,370.4c0-51.2-9.7-90.4-29-117.7c-19.4-27.3-46.8-40.9-82.3-40.9
		c-34.7,0-61.8,13.6-81.4,40.8c-19.6,27.2-29.6,65.6-30,115.3v26.6c0,50.8,9.9,90,29.7,117.7c19.8,27.7,47.2,41.6,82.3,41.6
		c35.5,0,62.9-13.5,82-40.6c19.1-27.1,28.7-66.6,28.7-118.7V370.4z"/>
	<path class="st0" d="M3445.9,463.1c-4.7,49.3-22.8,87.7-54.6,115.3c-31.7,27.6-73.9,41.4-126.6,41.4c-36.8,0-69.2-8.7-97.2-26.2
		c-28-17.4-49.7-42.2-64.9-74.4c-15.2-32.1-23.2-69.5-23.8-112v-43.1c0-43.6,7.7-82,23.2-115.2c15.4-33.2,37.6-58.8,66.5-76.8
		c28.9-18,62.2-26.9,100.1-26.9c51,0,92,13.8,123.1,41.4c31.1,27.6,49.2,66.7,54.3,117.2H3366c-3.8-33.2-13.5-57.2-29.1-71.9
		c-15.5-14.7-38.3-22-68.4-22c-34.9,0-61.7,12.7-80.4,38.3c-18.7,25.5-28.3,62.9-28.7,112.2v41c0,50,8.9,88.1,26.8,114.3
		c17.9,26.2,44.1,39.4,78.5,39.4c31.5,0,55.2-7.1,71.1-21.3c15.9-14.2,25.9-37.7,30.2-70.8H3445.9z"/>
	<path class="st0" d="M4209.2,613.4h-79.9v-205h-206.5v205h-80.3V151.5h80.3v192.2h206.5V151.5h79.9V613.4z"/>
</g>
<g>
	<path class="st0" d="M333.4,111.2v27.6h40.9v-27.6H333.4z M558.7,111.2h-61.9v27.6h61.9c30.5,0,55.2,24.7,55.2,55.2v400.7
		c0,30.5-24.7,55.2-55.2,55.2H149c-30.5,0-55.2-24.7-55.2-55.2V194c0-30.5,24.7-55.2,55.2-55.2h61.7v-27.6H149
		c-45.7,0-82.8,37.1-82.8,82.8v400.7c0,45.7,37.1,82.8,82.8,82.8h409.6c45.7,0,82.8-37.1,82.8-82.8V194
		C641.5,148.3,604.4,111.2,558.7,111.2z M456,111.2h-40.9v27.6H456V111.2z M251.6,111.2v27.6h40.9v-27.6H251.6z"/>
	<g>
		<g>
			<rect x="265" y="319.2" class="st0" width="57.6" height="57.6"/>
			<rect x="385.1" y="319.2" class="st0" width="57.6" height="57.6"/>
			<rect x="505.2" y="319.2" class="st0" width="57.6" height="57.6"/>
		</g>
		<g>
			<rect x="144.9" y="424.3" class="st0" width="57.6" height="57.6"/>
			<rect x="265" y="424.3" class="st0" width="57.6" height="57.6"/>
			<rect x="505.2" y="424.3" class="st0" width="57.6" height="57.6"/>
		</g>
		<g>
			<rect x="144.9" y="529.4" class="st0" width="57.6" height="57.6"/>
			<rect x="265" y="529.4" class="st0" width="57.6" height="57.6"/>
			<rect x="385.1" y="529.4" class="st0" width="57.6" height="57.6"/>
			<rect x="505.2" y="529.4" class="st0" width="57.6" height="57.6"/>
		</g>
	</g>
	<path class="st0" d="M451,420.4c-20.5-20.5-53.8-20.5-74.3,0c-20.5,20.5-20.5,53.8,0,74.3c10.2,10.2,23.7,15.4,37.1,15.4
		c13.5,0,26.9-5.1,37.1-15.4C471.5,474.2,471.5,440.9,451,420.4z M440,483.6c-14.4,14.4-37.8,14.4-52.1,0
		c-14.4-14.4-14.4-37.8,0-52.2c7.2-7.2,16.6-10.8,26.1-10.8c6.9,0,13.9,2,19.9,5.9l-19.9,19.9l-14.7-14.7l-11,11l25.7,25.7l31-31
		C454.1,451.9,452.5,471.2,440,483.6z"/>
	<g>
		<rect x="169.9" y="87.4" class="st0" width="40.9" height="85.7"/>
		<rect x="333.4" y="87.4" class="st0" width="40.9" height="85.7"/>
		<rect x="496.8" y="87.4" class="st0" width="40.9" height="85.7"/>
	</g>
</g>
</svg>
