<?xml version="1.0" encoding="utf-8"?>
<!-- Generator: Adobe Illustrator 24.2.1, SVG Export Plug-In . SVG Version: 6.00 Build 0)  -->
<svg version="1.1" id="Layer_1" xmlns="http://www.w3.org/2000/svg" xmlns:xlink="http://www.w3.org/1999/xlink" x="0px" y="0px"
	 viewBox="0 0 4285.2 751.7" style="enable-background:new 0 0 4285.2 751.7;" xml:space="preserve">
<style type="text/css">
	.st0{fill:#EAEAEE;}
	.st1{fill:#FFFFFF;}
	.st2{fill:#414255;}
	.st3{fill:#9815A0;}
	.st4{fill:#75107B;}
	.st5{fill:#CAC7D1;}
</style>
<g>
	<path class="st0" d="M1157.5,407.2H967.8v142.1h221.8v64.1h-302V151.5h299.8v64.7H967.8v127.5h189.7V407.2z"/>
	<path class="st0" d="M1660.1,442.1v171.3h-80.3V151.5h176.7c51.6,0,92.6,13.4,122.9,40.3c30.4,26.9,45.5,62.5,45.5,106.7
		c0,45.3-14.9,80.6-44.6,105.8c-29.7,25.2-71.3,37.8-124.8,37.8L1660.1,442.1L1660.1,442.1z M1660.1,377.4h96.4
		c28.6,0,50.3-6.7,65.4-20.2c15-13.4,22.5-32.8,22.5-58.2c0-24.9-7.6-44.9-22.8-59.8c-15.2-14.9-36.2-22.6-62.8-23h-98.7V377.4z"/>
	<path class="st0" d="M2688.6,394.5c0,45.3-7.8,85-23.5,119.1c-15.7,34.2-38,60.4-67.1,78.7s-62.6,27.4-100.4,27.4
		c-37.4,0-70.8-9.1-100.1-27.4c-29.3-18.3-51.9-44.4-67.9-78.2s-24.1-72.9-24.3-117.1v-26c0-45,8-84.8,23.9-119.3
		c16-34.5,38.5-60.9,67.6-79.2s62.5-27.4,100.1-27.4c37.7,0,71,9,100.1,27.1s51.6,44.1,67.4,78c15.9,34,23.9,73.5,24.1,118.5v25.8
		H2688.6z M2608.4,370.4c0-51.2-9.7-90.4-29-117.7c-19.4-27.3-46.8-40.9-82.3-40.9c-34.7,0-61.8,13.6-81.4,40.8
		c-19.6,27.2-29.6,65.6-30,115.3v26.6c0,50.8,9.9,90,29.7,117.7s47.2,41.6,82.3,41.6c35.5,0,62.9-13.5,82-40.6
		c19.1-27.1,28.7-66.6,28.7-118.7V370.4z"/>
	<path class="st0" d="M3445.9,463.1c-4.7,49.3-22.8,87.7-54.6,115.3c-31.7,27.6-73.9,41.4-126.6,41.4c-36.8,0-69.2-8.7-97.2-26.2
		c-28-17.4-49.7-42.2-64.9-74.4c-15.2-32.1-23.2-69.5-23.8-112v-43.1c0-43.6,7.7-82,23.2-115.2c15.4-33.2,37.6-58.8,66.5-76.8
		s62.2-26.9,100.1-26.9c51,0,92,13.8,123.1,41.4s49.2,66.7,54.3,117.2h-80c-3.8-33.2-13.5-57.2-29.1-71.9
		c-15.5-14.7-38.3-22-68.4-22c-34.9,0-61.7,12.7-80.4,38.3c-18.7,25.5-28.3,62.9-28.7,112.2v41c0,50,8.9,88.1,26.8,114.3
		c17.9,26.2,44.1,39.4,78.5,39.4c31.5,0,55.2-7.1,71.1-21.3c15.9-14.2,25.9-37.7,30.2-70.8h79.9V463.1z"/>
	<path class="st0" d="M4209.2,613.4h-79.9v-205h-206.5v205h-80.3V151.5h80.3v192.2h206.5V151.5h79.9V613.4z"/>
</g>
<path class="st1" d="M179.41,134.42h497.85v497.85H179.41V134.42z"/>
<path class="st2" d="M673.76,137.92v490.84H182.92V137.92H673.76 M680.77,130.91H175.91v504.86h504.86V130.91L680.77,130.91z"/>
<path class="st3" d="M179.41,134.42h497.85v77.13H179.41V134.42z"/>
<path class="st4" d="M673.76,137.92v70.12H182.92v-70.12H673.76 M680.77,130.91H175.91v84.14h504.86V130.91L680.77,130.91z"/>
<path class="st5" d="M330.17,299.2h28.05v28.05h-28.05V299.2z M442.36,299.2h28.05v28.05h-28.05V299.2z M498.46,299.2h28.05v28.05
	h-28.05V299.2z M554.55,299.2h28.05v28.05h-28.05V299.2z M274.07,355.3h28.05v28.05h-28.05V355.3z M330.17,355.3h28.05v28.05h-28.05
	V355.3z M442.36,355.3h28.05v28.05h-28.05V355.3z M498.46,355.3h28.05v28.05h-28.05V355.3z M554.55,355.3h28.05v28.05h-28.05V355.3z
	 M274.07,467.49h28.05v28.05h-28.05V467.49z M330.17,467.49h28.05v28.05h-28.05V467.49z M442.36,467.49h28.05v28.05h-28.05V467.49z
	 M386.27,299.2h28.05v28.05h-28.05V299.2z M386.27,355.3h28.05v28.05h-28.05V355.3z M274.07,411.39h28.05v28.05h-28.05V411.39z
	 M330.17,411.39h28.05v28.05h-28.05V411.39z M442.36,411.39h28.05v28.05h-28.05V411.39z M498.46,411.39h28.05v28.05h-28.05V411.39z
	 M554.55,411.39h28.05v28.05h-28.05V411.39z M386.27,411.39h28.05v28.05h-28.05V411.39z M386.27,467.49h28.05v28.05h-28.05V467.49z
	 M498.46,467.49h28.05v28.05h-28.05V467.49z"/>
<path class="st5" d="M182.92,593.7h490.84v35.06H182.92V593.7z"/>
</svg>
