<?xml version="1.0" encoding="utf-8"?>
<!-- Generator: Adobe Illustrator 24.2.1, SVG Export Plug-In . SVG Version: 6.00 Build 0)  -->
<svg version="1.1" id="Layer_1" xmlns="http://www.w3.org/2000/svg" xmlns:xlink="http://www.w3.org/1999/xlink" x="0px" y="0px"
	 viewBox="0 0 160 160" style="enable-background:new 0 0 160 160;" xml:space="preserve">
<style type="text/css">
	.st0{fill:#FFFFFF;}
	.st1{fill:#414255;}
	.st2{fill:#9815A0;}
	.st3{fill:#75107B;}
	.st4{fill:#CAC7D1;}
</style>
<path class="st0" d="M9,9h142v142H9V9z"/>
<path class="st1" d="M150,10v140H10V10H150 M152,8H8v144h144V8L152,8z"/>
<path class="st2" d="M9,9h142v22H9V9z"/>
<path class="st3" d="M150,10v20H10V10H150 M152,8H8v24h144V8L152,8z"/>
<path class="st4" d="M52,56h8v8h-8V56z M84,56h8v8h-8V56z M100,56h8v8h-8V56z M116,56h8v8h-8V56z M36,72h8v8h-8V72z M52,72h8v8h-8
	V72z M84,72h8v8h-8V72z M100,72h8v8h-8V72z M116,72h8v8h-8V72z M36,104h8v8h-8V104z M52,104h8v8h-8V104z M84,104h8v8h-8V104z M68,56
	h8v8h-8V56z M68,72h8v8h-8V72z M36,88h8v8h-8V88z M52,88h8v8h-8V88z M84,88h8v8h-8V88z M100,88h8v8h-8V88z M116,88h8v8h-8V88z
	 M68,88h8v8h-8V88z M68,104h8v8h-8V104z M100,104h8v8h-8V104z"/>
<path class="st4" d="M10,140h140v10H10V140z"/>
</svg>
