<?xml version="1.0" encoding="utf-8"?>
<!-- Generator: Adobe Illustrator 24.2.0, SVG Export Plug-In . SVG Version: 6.00 Build 0)  -->
<svg version="1.1" xmlns="http://www.w3.org/2000/svg" xmlns:xlink="http://www.w3.org/1999/xlink" x="0px" y="0px"
	 viewBox="0 0 572.09 449.59" style="enable-background:new 0 0 572.09 449.59;" xml:space="preserve">
<style type="text/css">
	.st0{display:none;}
	.st1{opacity:0.6;fill:#EAEAEE;}
	.st2{fill:#DEDEE0;}
	.st3{opacity:0.5;fill:#DEDEE0;}
	.st4{opacity:0.25;fill:#DEDEE0;}
	.st5{fill:#414255;}
	.st6{fill:#FFFFFF;}
	.st7{opacity:0.5;}
	.st8{opacity:0.7;}
	.st9{fill:#E3E3E5;}
	.st10{opacity:0.5;fill:#11AFD3;}
	.st11{opacity:0.8;fill:#FFFFFF;}
	.st12{opacity:0.7;fill:#E3E3E5;}
	.st13{fill:#EAEAEE;}
	.st14{fill:none;stroke:#FFFFFF;stroke-width:1.6843;stroke-linecap:round;stroke-linejoin:round;stroke-miterlimit:10;}
	.st15{fill:none;stroke:#FFFFFF;stroke-width:1.9781;stroke-linecap:round;stroke-linejoin:round;stroke-miterlimit:10;}
	.st16{fill:none;stroke:#FFFFFF;stroke-width:2.017;stroke-linecap:round;stroke-linejoin:round;stroke-miterlimit:10;}
	.st17{fill:none;stroke:#414255;stroke-width:1.3019;stroke-miterlimit:10;}
	.st18{fill:none;stroke:#3A3B4E;stroke-width:5.4139;stroke-linecap:round;stroke-miterlimit:10;}
	.st19{fill:none;stroke:#414255;stroke-width:3.9056;stroke-linecap:round;stroke-linejoin:round;stroke-miterlimit:10;}
	.st20{fill:#3A3B4E;}
	.st21{fill:none;stroke:#101747;stroke-width:1.0828;stroke-miterlimit:10;}
	.st22{opacity:0.3;}
	.st23{fill:none;stroke:#101747;stroke-width:3.2483;stroke-linecap:round;stroke-miterlimit:10;}
	.st24{fill:#192469;}
	.st25{fill:#FDAEB3;}
	.st26{fill:#E58099;}
	.st27{fill:#1D2468;}
	.st28{fill:#75107B;}
	.st29{fill:#9815A0;}
	.st30{fill:#9F18AA;}
	.st31{fill:none;stroke:#FFFFFF;stroke-width:0.2469;stroke-linecap:round;stroke-miterlimit:10;}
	.st32{fill:#423D73;}
	.st33{fill:#332F62;}
	.st34{fill:#9E9DBA;}
	.st35{opacity:0.47;fill:url(#SVGID_1_);}
</style>
<g id="BACKGROUND" class="st0">
</g>
<g id="OBJECTS">
	<g>
		<path id="XMLID_147_" class="st1" d="M30.17,417.83c0,0-38.9-52.74,18.57-100.81c23.09-19.32,112.92-32.92,37.4-140.67
			C41.73,113,106.23,20.72,209.19,79.31c87.62,49.87,148.56-56.32,226.14-63.37c59.01-5.36,94.5,67.41,58.9,123.99
			c-39.94,63.48,36.22,52.82,52.77,73.84c29.15,37-65.45,80.92-22.05,127.92c44.19,47.86,13.89,76.15,13.89,76.15H30.17z"/>
		<path id="XMLID_145_" class="st2" d="M469.89,419.33H15.52c-0.9,0-1.62-0.73-1.62-1.62l0,0c0-0.9,0.73-1.62,1.62-1.62h454.37
			c0.9,0,1.62,0.73,1.62,1.62l0,0C471.51,418.6,470.79,419.33,469.89,419.33z"/>
		<path id="XMLID_110_" class="st2" d="M543.72,419.33h-68.41c-0.9,0-1.62-0.73-1.62-1.62l0,0c0-0.9,0.73-1.62,1.62-1.62h68.41
			c0.9,0,1.62,0.73,1.62,1.62l0,0C545.34,418.6,544.61,419.33,543.72,419.33z"/>
		<path id="XMLID_107_" class="st3" d="M285.21,427.98H90.41c-0.9,0-1.62-0.73-1.62-1.62l0,0c0-0.9,0.73-1.62,1.62-1.62h194.81
			c0.9,0,1.62,0.73,1.62,1.62l0,0C286.84,427.26,286.11,427.98,285.21,427.98z"/>
		<path id="XMLID_104_" class="st3" d="M423.27,427.98H292.99c-0.9,0-1.62-0.73-1.62-1.62l0,0c0-0.9,0.73-1.62,1.62-1.62h130.28
			c0.9,0,1.62,0.73,1.62,1.62l0,0C424.9,427.26,424.17,427.98,423.27,427.98z"/>
		<path id="XMLID_103_" class="st4" d="M400.24,437.1H166.77c-0.9,0-1.62-0.73-1.62-1.62l0,0c0-0.9,0.73-1.62,1.62-1.62h233.47
			c0.9,0,1.62,0.73,1.62,1.62l0,0C401.86,436.37,401.13,437.1,400.24,437.1z"/>
		<path id="XMLID_99_" class="st4" d="M461.8,437.1h-52.94c-0.9,0-1.62-0.73-1.62-1.62l0,0c0-0.9,0.73-1.62,1.62-1.62h52.94
			c0.9,0,1.62,0.73,1.62,1.62l0,0C463.42,436.37,462.7,437.1,461.8,437.1z"/>
		<g id="XMLID_543_">
			<g>
				<path id="XMLID_48_" class="st5" d="M471.89,149.44v-12.33h-5.26c-1.02-6.86-3.72-13.18-7.67-18.51l3.73-3.73l-8.72-8.72
					l-3.73,3.73c-5.34-3.95-11.65-6.65-18.51-7.67v-5.27h-12.33v5.27c-6.86,1.02-13.18,3.72-18.51,7.67l-3.73-3.73l-8.72,8.72
					l3.73,3.73c-3.95,5.34-6.65,11.65-7.67,18.51h-5.27v12.33h5.27c1.02,6.86,3.72,13.18,7.67,18.51l-3.73,3.73l8.72,8.72l3.73-3.73
					c5.34,3.95,11.65,6.65,18.51,7.67v5.26h12.33v-5.27c6.86-1.02,13.18-3.72,18.51-7.67l3.73,3.73l8.72-8.72l-3.73-3.73
					c3.95-5.33,6.65-11.65,7.67-18.51H471.89z M456.61,140.18c1.89,19.65-14.47,36.02-34.11,34.16c-14.3-1.35-26.07-12.7-27.9-26.95
					c-2.62-20.42,14.55-37.64,34.99-35.07C443.86,114.11,455.24,125.87,456.61,140.18z"/>
				
					<ellipse id="XMLID_47_" transform="matrix(0.7071 -0.7071 0.7071 0.7071 23.3287 342.8739)" class="st5" cx="425.55" cy="143.28" rx="21.62" ry="21.62"/>
			</g>
		</g>
		<g id="XMLID_538_">
			<g>
				<path id="XMLID_44_" class="st6" d="M499.81,109.02v-5.04h-2.15c-0.42-2.8-1.52-5.39-3.14-7.57l1.52-1.52l-3.56-3.56l-1.52,1.52
					c-2.18-1.61-4.76-2.72-7.57-3.14v-2.15h-5.04v2.15c-2.81,0.42-5.39,1.52-7.57,3.14l-1.52-1.52l-3.56,3.56l1.52,1.52
					c-1.61,2.18-2.72,4.76-3.14,7.57h-2.15v5.04h2.15c0.42,2.81,1.52,5.39,3.14,7.57l-1.52,1.52l3.56,3.56l1.52-1.52
					c2.18,1.61,4.76,2.72,7.57,3.14v2.15h5.04v-2.15c2.81-0.42,5.39-1.52,7.57-3.14l1.52,1.52l3.56-3.56l-1.52-1.52
					c1.61-2.18,2.72-4.76,3.14-7.57H499.81z M493.57,105.23c0.77,8.03-5.91,14.72-13.94,13.96c-5.85-0.55-10.66-5.19-11.4-11.02
					c-1.07-8.35,5.95-15.39,14.3-14.33C488.36,94.58,493.01,99.38,493.57,105.23z"/>
				<path id="XMLID_43_" class="st6" d="M489.71,106.5c0,4.88-3.96,8.84-8.84,8.84c-4.88,0-8.84-3.96-8.84-8.84
					c0-4.88,3.96-8.84,8.84-8.84C485.75,97.66,489.71,101.61,489.71,106.5z"/>
			</g>
		</g>
		<g id="XMLID_535_" class="st7">
			<g>
				<path id="XMLID_24_" class="st6" d="M124.09,342.96c-4.54-5.99-11.71-9.87-19.8-9.86c-13.13,0.02-24.24,10.71-24.75,23.83
					c-0.55,14.15,10.76,25.79,24.79,25.79c8.44,0,15.89-4.23,20.37-10.67l-20.37-14.14L124.09,342.96z"/>
				<g id="XMLID_23_">
					<path class="st6" d="M129.91,342.96l-19.76,14.95l20.37,14.14c2.79-4.01,4.43-8.88,4.43-14.14
						C134.96,352.29,133.07,347.12,129.91,342.96z"/>
				</g>
			</g>
		</g>
		<g class="st8">
			<path id="XMLID_532_" class="st9" d="M116.2,162.18c-18.88,0-34.24-15.36-34.24-34.24c0-18.88,15.36-34.24,34.24-34.24
				c18.88,0,34.24,15.36,34.24,34.24C150.45,146.82,135.08,162.18,116.2,162.18z M116.2,98.98c-15.97,0-28.96,12.99-28.96,28.96
				s12.99,28.96,28.96,28.96c15.97,0,28.96-12.99,28.96-28.96S132.17,98.98,116.2,98.98z"/>
			<path id="XMLID_530_" class="st9" d="M137.13,127.94L137.13,127.94c0-0.95,0.78-1.73,1.73-1.73h2.97c0.95,0,1.73,0.78,1.73,1.73
				l0,0c0,0.95-0.78,1.73-1.73,1.73h-2.97C137.91,129.67,137.13,128.89,137.13,127.94z"/>
			<path id="XMLID_529_" class="st9" d="M88.83,127.94L88.83,127.94c0-0.95,0.78-1.73,1.73-1.73h2.97c0.95,0,1.73,0.78,1.73,1.73
				l0,0c0,0.95-0.78,1.73-1.73,1.73h-2.97C89.61,129.67,88.83,128.89,88.83,127.94z"/>
			<path id="XMLID_527_" class="st9" d="M116.2,148.87L116.2,148.87c0.95,0,1.73,0.78,1.73,1.73v2.97c0,0.95-0.78,1.73-1.73,1.73
				l0,0c-0.95,0-1.73-0.78-1.73-1.73v-2.97C114.47,149.65,115.25,148.87,116.2,148.87z"/>
			<path id="XMLID_526_" class="st9" d="M116.2,100.56L116.2,100.56c0.95,0,1.73,0.78,1.73,1.73v2.97c0,0.95-0.78,1.73-1.73,1.73
				l0,0c-0.95,0-1.73-0.78-1.73-1.73v-2.97C114.47,101.34,115.25,100.56,116.2,100.56z"/>
			<path id="XMLID_524_" class="st9" d="M101.4,142.74L101.4,142.74c0.67,0.67,0.67,1.78,0,2.45l-2.1,2.1
				c-0.67,0.67-1.78,0.67-2.45,0l0,0c-0.67-0.67-0.67-1.78,0-2.45l2.1-2.1C99.62,142.06,100.73,142.06,101.4,142.74z"/>
			<path id="XMLID_523_" class="st9" d="M135.56,108.58L135.56,108.58c0.67,0.67,0.67,1.78,0,2.45l-2.1,2.1
				c-0.67,0.67-1.78,0.67-2.45,0l0,0c-0.67-0.67-0.67-1.78,0-2.45l2.1-2.1C133.78,107.91,134.88,107.91,135.56,108.58z"/>
			<path id="XMLID_521_" class="st9" d="M101.4,113.13L101.4,113.13c-0.67,0.67-1.78,0.67-2.45,0l-2.1-2.1
				c-0.67-0.67-0.67-1.78,0-2.45l0,0c0.67-0.67,1.78-0.67,2.45,0l2.1,2.1C102.07,111.36,102.07,112.46,101.4,113.13z"/>
			<path id="XMLID_520_" class="st9" d="M135.56,147.29L135.56,147.29c-0.67,0.67-1.78,0.67-2.45,0l-2.1-2.1
				c-0.67-0.67-0.67-1.78,0-2.45l0,0c0.67-0.67,1.78-0.67,2.45,0l2.1,2.1C136.23,145.51,136.23,146.62,135.56,147.29z"/>
			<path id="XMLID_517_" class="st9" d="M119.03,127.94c0,1.56-1.27,2.83-2.83,2.83c-1.56,0-2.83-1.27-2.83-2.83
				c0-1.56,1.27-2.83,2.83-2.83C117.77,125.1,119.03,126.37,119.03,127.94z"/>
			<path id="XMLID_516_" class="st9" d="M116.2,124.39L116.2,124.39c-0.3,0-0.55-0.25-0.55-0.55v-14.48c0-0.3,0.25-0.55,0.55-0.55
				l0,0c0.3,0,0.55,0.25,0.55,0.55v14.48C116.75,124.14,116.51,124.39,116.2,124.39z"/>
			<path id="XMLID_515_" class="st9" d="M120.11,127.94L120.11,127.94c0-0.3,0.25-0.55,0.55-0.55h9.56c0.3,0,0.55,0.25,0.55,0.55
				l0,0c0,0.3-0.25,0.55-0.55,0.55h-9.56C120.35,128.49,120.11,128.24,120.11,127.94z"/>
		</g>
		<path id="XMLID_81_" class="st10" d="M485.55,225.33h-4.12v-4.12c0-0.67-0.54-1.21-1.21-1.21c-0.67,0-1.21,0.54-1.21,1.21v4.12
			h-4.12c-0.67,0-1.21,0.54-1.21,1.21c0,0.67,0.54,1.21,1.21,1.21h4.12v4.12c0,0.67,0.54,1.21,1.21,1.21c0.67,0,1.21-0.54,1.21-1.21
			v-4.12h4.12c0.67,0,1.21-0.54,1.21-1.21C486.76,225.87,486.22,225.33,485.55,225.33z"/>
		<path id="XMLID_80_" class="st6" d="M111.56,315.82h-4.12v-4.12c0-0.67-0.54-1.21-1.21-1.21c-0.67,0-1.21,0.54-1.21,1.21v4.12
			h-4.12c-0.67,0-1.21,0.54-1.21,1.21c0,0.67,0.54,1.21,1.21,1.21h4.12v4.12c0,0.67,0.54,1.21,1.21,1.21c0.67,0,1.21-0.54,1.21-1.21
			v-4.12h4.12c0.67,0,1.21-0.54,1.21-1.21C112.77,316.36,112.23,315.82,111.56,315.82z"/>
		<path id="XMLID_29_" class="st6" d="M48.83,399.98h-2.7v-2.7c0-0.44-0.35-0.79-0.79-0.79c-0.44,0-0.79,0.35-0.79,0.79v2.7h-2.7
			c-0.44,0-0.79,0.35-0.79,0.79c0,0.44,0.35,0.79,0.79,0.79h2.7v2.7c0,0.44,0.35,0.79,0.79,0.79c0.44,0,0.79-0.35,0.79-0.79v-2.7
			h2.7c0.44,0,0.79-0.35,0.79-0.79C49.62,400.34,49.26,399.98,48.83,399.98z"/>
		<path id="XMLID_78_" class="st5" d="M143.12,42.66h-4.12v-4.12c0-0.67-0.54-1.21-1.21-1.21c-0.67,0-1.21,0.54-1.21,1.21v4.12
			h-4.12c-0.67,0-1.21,0.54-1.21,1.21c0,0.67,0.54,1.21,1.21,1.21h4.12v4.12c0,0.67,0.54,1.21,1.21,1.21c0.67,0,1.21-0.54,1.21-1.21
			v-4.12h4.12c0.67,0,1.21-0.54,1.21-1.21C144.32,43.2,143.78,42.66,143.12,42.66z"/>
		<path id="XMLID_77_" class="st11" d="M205.69,331.88h-4.12v-4.12c0-0.67-0.54-1.21-1.21-1.21c-0.67,0-1.21,0.54-1.21,1.21v4.12
			h-4.12c-0.67,0-1.21,0.54-1.21,1.21s0.54,1.21,1.21,1.21h4.12v4.12c0,0.67,0.54,1.21,1.21,1.21c0.67,0,1.21-0.54,1.21-1.21v-4.12
			h4.12c0.67,0,1.21-0.54,1.21-1.21S206.36,331.88,205.69,331.88z"/>
		<path id="XMLID_73_" class="st5" d="M349.61,41.34h-4.12v-4.12c0-0.67-0.54-1.21-1.21-1.21c-0.67,0-1.21,0.54-1.21,1.21v4.12
			h-4.12c-0.67,0-1.21,0.54-1.21,1.21c0,0.67,0.54,1.21,1.21,1.21h4.12v4.12c0,0.67,0.54,1.21,1.21,1.21c0.67,0,1.21-0.54,1.21-1.21
			v-4.12h4.12c0.67,0,1.21-0.54,1.21-1.21C350.82,41.88,350.28,41.34,349.61,41.34z"/>
		<path id="XMLID_38_" class="st1" d="M230.68,59.12h-2.34v-2.34c0-0.38-0.31-0.68-0.68-0.68c-0.38,0-0.68,0.31-0.68,0.68v2.34
			h-2.34c-0.38,0-0.68,0.31-0.68,0.68c0,0.38,0.31,0.68,0.68,0.68h2.34v2.34c0,0.38,0.31,0.68,0.68,0.68c0.38,0,0.68-0.31,0.68-0.68
			v-2.34h2.34c0.38,0,0.68-0.31,0.68-0.68C231.36,59.42,231.06,59.12,230.68,59.12z"/>
		<path id="XMLID_72_" class="st11" d="M228.59,391.43c-1.53,0-2.95,0.45-4.19,1.17c-0.81-6.82-6.6-12.1-13.63-12.1
			c-5.63,0-10.46,3.39-12.58,8.23c-0.83-0.23-1.68-0.39-2.58-0.39c-5.42,0-9.82,4.4-9.82,9.82c0,5.42,4.4,9.82,9.82,9.82h32.99
			c4.57,0,8.28-3.71,8.28-8.28C236.86,395.13,233.16,391.43,228.59,391.43z"/>
		<path id="XMLID_37_" class="st11" d="M341.6,370.98c-1.53,0-2.95,0.45-4.19,1.17c-0.81-6.82-6.6-12.1-13.63-12.1
			c-5.63,0-10.46,3.39-12.58,8.23c-0.83-0.23-1.68-0.39-2.58-0.39c-5.42,0-9.82,4.4-9.82,9.82c0,5.42,4.4,9.82,9.82,9.82h32.99
			c4.57,0,8.28-3.71,8.28-8.28C349.88,374.69,346.17,370.98,341.6,370.98z"/>
		<path id="XMLID_63_" class="st12" d="M89.42,235.95c-1.14,0-2.19,0.33-3.11,0.87c-0.6-5.06-4.9-8.98-10.12-8.98
			c-4.18,0-7.76,2.51-9.34,6.11c-0.62-0.17-1.25-0.29-1.92-0.29c-4.02,0-7.29,3.26-7.29,7.29s3.26,7.29,7.29,7.29h24.48
			c3.39,0,6.14-2.75,6.14-6.14C95.56,238.7,92.81,235.95,89.42,235.95z"/>
		<path id="XMLID_146_" class="st13" d="M429.78,63.13c-0.81,2.21-1.89,4.23-3.22,6.05c-6.34,8.76-17.95,12.63-28.61,8.73
			c-7.97-2.92-13.54-9.5-15.5-17.16c-1.2-4.69-1.05-9.77,0.74-14.66c4.7-12.86,18.94-19.48,31.8-14.77l-8.52,23.29l24.39-4.4
			C431.63,54.41,431.35,58.84,429.78,63.13z"/>
		<path id="XMLID_144_" class="st13" d="M434.48,46.89c-1.52-8.38-7.29-15.76-15.87-18.89l-8.52,23.29L434.48,46.89z"/>
		<path id="XMLID_143_" class="st6" d="M429.78,63.13c-0.81,2.21-1.89,4.23-3.22,6.05l-20.08-14.57l24.39-4.4
			C431.63,54.41,431.35,58.84,429.78,63.13z"/>
		<path id="XMLID_142_" class="st6" d="M414.99,31.32l-8.52,23.29l-24.02,6.14c-1.2-4.69-1.05-9.77,0.74-14.66
			C387.89,33.23,402.13,26.62,414.99,31.32z"/>
		<path id="XMLID_57_" class="st6" d="M466.52,45.99c-1.82,0-3.45,0.79-4.59,2.04l-4.94-3.47c0.23-0.52,0.37-1.1,0.37-1.7
			c0-2.31-1.87-4.18-4.18-4.18c-2.31,0-4.18,1.87-4.18,4.18c0,2.31,1.87,4.18,4.18,4.18c1.13,0,2.14-0.45,2.89-1.17l4.95,3.48
			c-0.46,0.87-0.74,1.84-0.74,2.89c0,1.49,0.54,2.83,1.41,3.9l-2.54,2.65c-0.65-0.42-1.42-0.67-2.25-0.67
			c-2.31,0-4.18,1.87-4.18,4.18c0,2.31,1.87,4.18,4.18,4.18c2.31,0,4.18-1.87,4.18-4.18c0-0.9-0.29-1.73-0.77-2.41l2.53-2.65
			c1.03,0.76,2.3,1.23,3.69,1.23c3.45,0,6.24-2.79,6.24-6.24C472.76,48.78,469.97,45.99,466.52,45.99z"/>
		<g>
			<path class="st5" d="M97.2,275.8c0.04,4.38-3.48,7.96-7.86,8c-4.38,0.04-7.96-3.48-8-7.86c-0.04-4.38,3.48-7.96,7.86-8
				C93.59,267.9,97.17,271.42,97.2,275.8z"/>
			<polyline class="st14" points="85.79,276.27 88.94,279.27 93.06,273.61 			"/>
		</g>
		<path class="st5" d="M514.47,168.32c0.04,5.14-4.09,9.35-9.23,9.39c-5.14,0.04-9.35-4.09-9.39-9.23
			c-0.04-5.14,4.09-9.35,9.23-9.39C510.22,159.04,514.43,163.17,514.47,168.32z"/>
		<polyline class="st15" points="501.07,168.87 504.77,172.39 509.61,165.74 		"/>
		<g>
			<path class="st1" d="M545.37,327.88c0.05,5.24-4.17,9.53-9.41,9.58c-5.24,0.05-9.53-4.17-9.58-9.41
				c-0.05-5.24,4.17-9.53,9.41-9.58C541.04,318.42,545.32,322.63,545.37,327.88z"/>
			<polyline class="st16" points="531.7,328.44 535.47,332.03 540.41,325.25 			"/>
		</g>
		<path class="st6" d="M400.01,101.58v193.09c0,8.37-6.79,15.16-15.16,15.16H148.97c-8.37,0-15.16-6.79-15.16-15.16V101.58
			c0-8.39,6.79-15.16,15.16-15.16h235.87C393.21,86.41,400.01,93.19,400.01,101.58z"/>
		<path class="st5" d="M400.01,101.58v27h-266.2v-27c0-8.39,6.79-15.16,15.16-15.16h235.87C393.21,86.41,400.01,93.19,400.01,101.58
			z"/>
		<g>
			<path class="st9" d="M172.38,170.86h-25.69c-1.28,0-2.32-1.04-2.32-2.32v-25.69c0-1.28,1.04-2.32,2.32-2.32h25.69
				c1.28,0,2.32,1.04,2.32,2.32v25.69C174.7,169.82,173.66,170.86,172.38,170.86z"/>
			<path class="st9" d="M215.6,170.86h-25.69c-1.28,0-2.32-1.04-2.32-2.32v-25.69c0-1.28,1.04-2.32,2.32-2.32h25.69
				c1.28,0,2.32,1.04,2.32,2.32v25.69C217.92,169.82,216.88,170.86,215.6,170.86z"/>
			<path class="st9" d="M258.82,170.86h-25.69c-1.28,0-2.32-1.04-2.32-2.32v-25.69c0-1.28,1.04-2.32,2.32-2.32h25.69
				c1.28,0,2.32,1.04,2.32,2.32v25.69C261.15,169.82,260.1,170.86,258.82,170.86z"/>
			<path class="st9" d="M302.04,170.86h-25.69c-1.28,0-2.32-1.04-2.32-2.32v-25.69c0-1.28,1.04-2.32,2.32-2.32h25.69
				c1.28,0,2.32,1.04,2.32,2.32v25.69C304.37,169.82,303.33,170.86,302.04,170.86z"/>
			<path class="st17" d="M345.26,170.86h-25.69c-1.28,0-2.32-1.04-2.32-2.32v-25.69c0-1.28,1.04-2.32,2.32-2.32h25.69
				c1.28,0,2.32,1.04,2.32,2.32v25.69C347.59,169.82,346.55,170.86,345.26,170.86z"/>
			<path class="st9" d="M388.48,170.86H362.8c-1.28,0-2.32-1.04-2.32-2.32v-25.69c0-1.28,1.04-2.32,2.32-2.32h25.69
				c1.28,0,2.32,1.04,2.32,2.32v25.69C390.81,169.82,389.77,170.86,388.48,170.86z"/>
		</g>
		<path class="st9" d="M172.38,211.57h-25.69c-1.28,0-2.32-1.04-2.32-2.32v-25.69c0-1.28,1.04-2.32,2.32-2.32h25.69
			c1.28,0,2.32,1.04,2.32,2.32v25.69C174.7,210.53,173.66,211.57,172.38,211.57z"/>
		<path class="st9" d="M215.6,211.57h-25.69c-1.28,0-2.32-1.04-2.32-2.32v-25.69c0-1.28,1.04-2.32,2.32-2.32h25.69
			c1.28,0,2.32,1.04,2.32,2.32v25.69C217.92,210.53,216.88,211.57,215.6,211.57z"/>
		<path class="st17" d="M258.82,211.57h-25.69c-1.28,0-2.32-1.04-2.32-2.32v-25.69c0-1.28,1.04-2.32,2.32-2.32h25.69
			c1.28,0,2.32,1.04,2.32,2.32v25.69C261.15,210.53,260.1,211.57,258.82,211.57z"/>
		<path class="st9" d="M302.04,211.57h-25.69c-1.28,0-2.32-1.04-2.32-2.32v-25.69c0-1.28,1.04-2.32,2.32-2.32h25.69
			c1.28,0,2.32,1.04,2.32,2.32v25.69C304.37,210.53,303.33,211.57,302.04,211.57z"/>
		<path class="st9" d="M345.26,211.57h-25.69c-1.28,0-2.32-1.04-2.32-2.32v-25.69c0-1.28,1.04-2.32,2.32-2.32h25.69
			c1.28,0,2.32,1.04,2.32,2.32v25.69C347.59,210.53,346.55,211.57,345.26,211.57z"/>
		<path class="st9" d="M388.48,211.57H362.8c-1.28,0-2.32-1.04-2.32-2.32v-25.69c0-1.28,1.04-2.32,2.32-2.32h25.69
			c1.28,0,2.32,1.04,2.32,2.32v25.69C390.81,210.53,389.77,211.57,388.48,211.57z"/>
		<g>
			<path class="st9" d="M172.38,252.27h-25.69c-1.28,0-2.32-1.04-2.32-2.32v-25.69c0-1.28,1.04-2.32,2.32-2.32h25.69
				c1.28,0,2.32,1.04,2.32,2.32v25.69C174.7,251.23,173.66,252.27,172.38,252.27z"/>
			<path class="st9" d="M215.6,252.27h-25.69c-1.28,0-2.32-1.04-2.32-2.32v-25.69c0-1.28,1.04-2.32,2.32-2.32h25.69
				c1.28,0,2.32,1.04,2.32,2.32v25.69C217.92,251.23,216.88,252.27,215.6,252.27z"/>
			<path class="st9" d="M258.82,252.27h-25.69c-1.28,0-2.32-1.04-2.32-2.32v-25.69c0-1.28,1.04-2.32,2.32-2.32h25.69
				c1.28,0,2.32,1.04,2.32,2.32v25.69C261.15,251.23,260.1,252.27,258.82,252.27z"/>
			<path class="st9" d="M302.04,252.27h-25.69c-1.28,0-2.32-1.04-2.32-2.32v-25.69c0-1.28,1.04-2.32,2.32-2.32h25.69
				c1.28,0,2.32,1.04,2.32,2.32v25.69C304.37,251.23,303.33,252.27,302.04,252.27z"/>
			<path class="st9" d="M345.26,252.27h-25.69c-1.28,0-2.32-1.04-2.32-2.32v-25.69c0-1.28,1.04-2.32,2.32-2.32h25.69
				c1.28,0,2.32,1.04,2.32,2.32v25.69C347.59,251.23,346.55,252.27,345.26,252.27z"/>
			<path class="st9" d="M388.48,252.27H362.8c-1.28,0-2.32-1.04-2.32-2.32v-25.69c0-1.28,1.04-2.32,2.32-2.32h25.69
				c1.28,0,2.32,1.04,2.32,2.32v25.69C390.81,251.23,389.77,252.27,388.48,252.27z"/>
		</g>
		<g>
			<path class="st17" d="M172.38,292.97h-25.69c-1.28,0-2.32-1.04-2.32-2.32v-25.69c0-1.28,1.04-2.32,2.32-2.32h25.69
				c1.28,0,2.32,1.04,2.32,2.32v25.69C174.7,291.93,173.66,292.97,172.38,292.97z"/>
			<path class="st9" d="M215.6,292.97h-25.69c-1.28,0-2.32-1.04-2.32-2.32v-25.69c0-1.28,1.04-2.32,2.32-2.32h25.69
				c1.28,0,2.32,1.04,2.32,2.32v25.69C217.92,291.93,216.88,292.97,215.6,292.97z"/>
			<path class="st9" d="M258.82,292.97h-25.69c-1.28,0-2.32-1.04-2.32-2.32v-25.69c0-1.28,1.04-2.32,2.32-2.32h25.69
				c1.28,0,2.32,1.04,2.32,2.32v25.69C261.15,291.93,260.1,292.97,258.82,292.97z"/>
			<path class="st9" d="M302.04,292.97h-25.69c-1.28,0-2.32-1.04-2.32-2.32v-25.69c0-1.28,1.04-2.32,2.32-2.32h25.69
				c1.28,0,2.32,1.04,2.32,2.32v25.69C304.37,291.93,303.33,292.97,302.04,292.97z"/>
			<path class="st9" d="M345.26,292.97h-25.69c-1.28,0-2.32-1.04-2.32-2.32v-25.69c0-1.28,1.04-2.32,2.32-2.32h25.69
				c1.28,0,2.32,1.04,2.32,2.32v25.69C347.59,291.93,346.55,292.97,345.26,292.97z"/>
			<path class="st9" d="M388.48,292.97H362.8c-1.28,0-2.32-1.04-2.32-2.32v-25.69c0-1.28,1.04-2.32,2.32-2.32h25.69
				c1.28,0,2.32,1.04,2.32,2.32v25.69C390.81,291.93,389.77,292.97,388.48,292.97z"/>
		</g>
		<g>
			<path class="st13" d="M155.35,109.93c0,3.05-2.47,5.52-5.52,5.52s-5.52-2.47-5.52-5.52c0-3.05,2.47-5.52,5.52-5.52
				S155.35,106.88,155.35,109.93z"/>
			<circle class="st13" cx="196.82" cy="109.93" r="5.52"/>
			<circle class="st13" cx="243.8" cy="109.93" r="5.52"/>
			<path class="st13" d="M296.29,109.93c0,3.05-2.47,5.52-5.52,5.52c-3.05,0-5.52-2.47-5.52-5.52c0-3.05,2.47-5.52,5.52-5.52
				C293.82,104.41,296.29,106.88,296.29,109.93z"/>
			<path class="st13" d="M343.27,109.93c0,3.05-2.47,5.52-5.52,5.52c-3.05,0-5.52-2.47-5.52-5.52c0-3.05,2.47-5.52,5.52-5.52
				C340.8,104.41,343.27,106.88,343.27,109.93z"/>
			<path class="st13" d="M390.25,109.93c0,3.05-2.47,5.52-5.52,5.52c-3.05,0-5.52-2.47-5.52-5.52c0-3.05,2.47-5.52,5.52-5.52
				C387.78,104.41,390.25,106.88,390.25,109.93z"/>
		</g>
		<line class="st18" x1="149.84" y1="109.93" x2="149.84" y2="84.03"/>
		<line class="st18" x1="196.82" y1="109.93" x2="196.82" y2="84.03"/>
		<line class="st18" x1="243.8" y1="109.93" x2="243.8" y2="84.03"/>
		<line class="st18" x1="337.75" y1="109.93" x2="337.75" y2="84.03"/>
		<line class="st18" x1="384.73" y1="109.93" x2="384.73" y2="84.03"/>
		<g id="XMLID_58_">
			<path id="XMLID_96_" class="st6" d="M245.98,252.19"/>
			<g id="XMLID_59_">
				<path id="XMLID_66_" class="st6" d="M254.68,228.96c-0.89,0.32-1.79,0.57-2.69,0.79c0.64,2.21,0.99,4.51,1.02,6.79h4.88
					C257.76,233.62,256.56,230.95,254.68,228.96z M250.64,226.13c0.39,0.82,0.71,1.68,1.01,2.53c0.71-0.17,1.42-0.36,2.11-0.58
					C252.83,227.28,251.8,226.61,250.64,226.13z M249.14,225.6c-0.83-0.23-1.7-0.37-2.61-0.4v4.09c1.33-0.01,2.68-0.15,4.01-0.39
					C250.17,227.76,249.69,226.67,249.14,225.6z M250.88,229.98c-1.43,0.26-2.89,0.42-4.34,0.43v6.13h5.36
					C251.86,234.32,251.52,232.11,250.88,229.98z M245.98,225.18c-0.19,0-0.37,0-0.56,0.01h1.12
					C246.35,225.18,246.17,225.18,245.98,225.18z M242.81,225.6c-0.55,1.07-1.02,2.17-1.4,3.28c1.32,0.24,2.67,0.39,4.01,0.4v-4.09
					C244.51,225.23,243.64,225.37,242.81,225.6z M238.19,228.06c0.69,0.24,1.39,0.43,2.11,0.6c0.3-0.86,0.63-1.7,1.01-2.52
					C240.17,226.61,239.12,227.27,238.19,228.06z M241.07,229.97c-0.63,2.13-0.98,4.34-1.01,6.57h5.35v-6.13
					C243.97,230.39,242.5,230.23,241.07,229.97z M237.29,228.93c-1.89,2.01-3.09,4.68-3.23,7.6h4.88c0.04-2.3,0.39-4.59,1.02-6.82
					C239.05,229.5,238.16,229.25,237.29,228.93z M246.54,237.65v6.14c1.45,0.02,2.9,0.17,4.33,0.44c0.64-2.14,0.99-4.36,1.02-6.58
					H246.54z M253.01,237.65c-0.04,2.31-0.38,4.59-1.04,6.81c0.9,0.21,1.8,0.48,2.69,0.79c1.89-2,3.09-4.66,3.22-7.59H253.01z
					 M240.32,245.54c-0.71,0.17-1.43,0.36-2.13,0.6c0.93,0.81,1.99,1.46,3.15,1.96C240.97,247.26,240.62,246.41,240.32,245.54z
					 M251.63,245.53c-0.29,0.87-0.63,1.71-1.02,2.56c1.17-0.49,2.23-1.15,3.15-1.98C253.06,245.89,252.34,245.7,251.63,245.53z
					 M246.54,244.91v4.11c0.88-0.05,1.74-0.18,2.57-0.4c0.56-1.07,1.04-2.18,1.42-3.3C249.2,245.07,247.87,244.94,246.54,244.91z
					 M241.43,245.33c0.39,1.11,0.87,2.21,1.43,3.28c0.81,0.23,1.67,0.36,2.56,0.4v-4.11C244.09,244.94,242.75,245.08,241.43,245.33z
					 M238.94,237.65h-4.88c0.13,2.94,1.33,5.62,3.23,7.62c0.88-0.31,1.78-0.58,2.7-0.8C239.34,242.25,238.98,239.96,238.94,237.65z
					 M240.06,237.65c0.04,2.23,0.39,4.44,1.02,6.58c1.43-0.26,2.88-0.42,4.33-0.44v-6.14H240.06z"/>
				<g id="XMLID_62_">
					<path id="XMLID_65_" class="st6" d="M245.41,249.01c0.19,0.01,0.37,0.01,0.56,0.01c0.19,0,0.37,0,0.56-0.01"/>
				</g>
				<g id="XMLID_60_">
					<path id="XMLID_61_" class="st6" d="M245.98,222.01"/>
				</g>
			</g>
		</g>
		<polyline class="st19" points="150.64,157.8 157.95,163.91 168.49,149.27 		"/>
		<polyline class="st19" points="324.33,157.8 331.65,163.91 342.19,149.27 		"/>
		<polyline class="st19" points="193.83,278.09 201.14,284.21 211.68,269.56 		"/>
		<g>
			<g>
				
					<rect x="327.23" y="172.44" transform="matrix(0.8506 -0.5259 0.5259 0.8506 -44.1228 204.0516)" class="st20" width="19.49" height="14.44"/>
				<path class="st20" d="M324.89,178.65L324.89,178.65c3.86-5.57,9.87-9.28,16.58-10.25l0,0L324.89,178.65z"/>
			</g>
			<g>
				
					<rect x="463.66" y="169.92" transform="matrix(0.5259 -0.8506 0.8506 0.5259 70.4457 485.6983)" class="st20" width="14.44" height="19.49"/>
				<path class="st20" d="M482.97,178.65L482.97,178.65c-3.86-5.57-9.87-9.28-16.58-10.25l0,0L482.97,178.65z"/>
			</g>
		</g>
		<rect x="388.68" y="157.55" class="st20" width="30.5" height="9.97"/>
		<path class="st5" d="M424.68,137.34v20.22h-41.51v-20.22C396.53,132.23,411.32,132.23,424.68,137.34z"/>
		<g>
			<line class="st21" x1="385.52" y1="157.55" x2="385.52" y2="137.34"/>
			<line class="st21" x1="388.83" y1="157.55" x2="388.83" y2="137.34"/>
			<line class="st21" x1="392.15" y1="157.55" x2="392.15" y2="137.34"/>
			<line class="st21" x1="395.46" y1="157.55" x2="395.46" y2="137.34"/>
			<line class="st21" x1="398.78" y1="157.55" x2="398.78" y2="137.34"/>
			<line class="st21" x1="402.09" y1="157.55" x2="402.09" y2="137.34"/>
			<line class="st21" x1="405.4" y1="157.55" x2="405.4" y2="137.34"/>
			<line class="st21" x1="408.72" y1="157.55" x2="408.72" y2="137.34"/>
			<line class="st21" x1="412.03" y1="157.55" x2="412.03" y2="137.34"/>
			<line class="st21" x1="415.35" y1="157.55" x2="415.35" y2="137.34"/>
			<line class="st21" x1="418.66" y1="157.55" x2="418.66" y2="137.34"/>
			<line class="st21" x1="421.97" y1="157.55" x2="421.97" y2="137.34"/>
		</g>
		<path class="st20" d="M424.68,137.34h-41.51C396.53,132.23,411.32,132.23,424.68,137.34z"/>
		
			<ellipse transform="matrix(0.7071 -0.7071 0.7071 0.7071 -82.583 368.8316)" class="st5" cx="403.93" cy="284.1" rx="120.19" ry="120.19"/>
		
			<ellipse transform="matrix(0.7071 -0.7071 0.7071 0.7071 -82.583 368.8316)" class="st12" cx="403.93" cy="284.1" rx="108.28" ry="108.28"/>
		<circle class="st6" cx="403.93" cy="284.1" r="104.49"/>
		<g>
			<g>
				<g>
					<line class="st18" x1="501.92" y1="284.1" x2="491.63" y2="284.1"/>
				</g>
				<g>
					<line class="st18" x1="403.93" y1="382.09" x2="403.93" y2="371.81"/>
				</g>
				<g>
					<line class="st18" x1="305.94" y1="284.1" x2="316.22" y2="284.1"/>
				</g>
				<g>
					<line class="st18" x1="403.93" y1="186.11" x2="403.93" y2="196.4"/>
				</g>
			</g>
		</g>
		<g class="st22">
			<g>
				<g>
					<line class="st23" x1="488.79" y1="333.1" x2="479.88" y2="327.96"/>
				</g>
				<g>
					<line class="st23" x1="354.93" y1="368.96" x2="360.07" y2="360.06"/>
				</g>
				<g>
					<line class="st23" x1="319.07" y1="235.1" x2="327.97" y2="240.25"/>
				</g>
				<g>
					<line class="st23" x1="452.93" y1="199.24" x2="447.78" y2="208.15"/>
				</g>
				<g>
					<line class="st23" x1="452.91" y1="368.97" x2="447.77" y2="360.07"/>
				</g>
				<g>
					<line class="st23" x1="319.06" y1="333.08" x2="327.96" y2="327.94"/>
				</g>
				<g>
					<line class="st23" x1="354.95" y1="199.23" x2="360.09" y2="208.14"/>
				</g>
				<g>
					<line class="st23" x1="488.8" y1="235.12" x2="479.89" y2="240.26"/>
				</g>
			</g>
		</g>
		<g>
			<path class="st5" d="M429.43,322.33c-1,0-1.99-0.46-2.63-1.34l-26.52-36.39l26.1-70.7c0.62-1.68,2.49-2.54,4.17-1.92
				c1.68,0.62,2.54,2.49,1.92,4.17l-24.89,67.44l24.47,33.57c1.06,1.45,0.74,3.48-0.71,4.54
				C430.76,322.13,430.09,322.33,429.43,322.33z"/>
		</g>
		<circle class="st24" cx="403.93" cy="284.1" r="8.12"/>
		<polyline class="st25" points="500.93,406.73 503.86,411.8 507.59,411.08 505.03,405.15 		"/>
		<path class="st20" d="M507.59,410.71c0,0-0.88,0.71-2.64,0.7c0,0-0.95-0.27-1.25-0.2c-0.3,0.07-0.81,0.91-1.02,1.15
			c-0.22,0.24-1.3,1-1.98,1.32c-0.52,0.24-2.5,0.93-2.86,1.7c-0.15,0.32,0.1,0.69,0.45,0.69c0.6-0.01,2.24-0.04,3.39-0.06
			c0.72-0.01,1.43-0.11,2.12-0.31c2.16-0.65,4.84-1.56,4.98-1.71C508.95,413.82,508.71,411.54,507.59,410.71z"/>
		<path class="st5" d="M474.61,357.47c-14.34-9.21-12.57,4.55-12.57,4.55l40.45,47.87c0,0,2.57-0.06,3.93-2.5
			C506.41,407.38,490.8,367.97,474.61,357.47z"/>
		<path class="st5" d="M479.34,316.41c0,0,1.68,3.52,1.25,8.03c-0.38,4.06-1.31,7.5-1.65,11.21c-0.34,3.7-4.64,25.76-4.64,25.76
			s-11.62,3.53-12.46,0.07c-1.7-6.99-4.1-44.83-4.1-44.83S468.92,319,479.34,316.41z"/>
		<path class="st5" d="M483.73,315.34c0,0,3.45,9.28-8.07,19.94c-2.99,2.77-5.72,3.82-9.39,7.23c-2.73,2.53-19.47,19.11-19.47,19.11
			s-10.35-8.22-9.05-11.53c2.63-6.7,21.2-40.24,21.2-40.24S473.72,311.47,483.73,315.34z"/>
		<polyline class="st25" points="423.83,406.79 422.4,412.52 426.2,412.7 429.28,407.28 		"/>
		<path class="st5" d="M449.87,353.99c-1-19.27-12.12-3.91-12.12-3.91l-14.66,58.76c0,0,1.73,1.8,4.59,1.84
			C427.68,410.67,450.87,373.26,449.87,353.99z"/>
		<path class="st25" d="M487.62,251.65c-4.77,2.34-12.77,0.32-12.77,0.32l2.68-8.54l1.15-3.65c0,0,0.82-0.7,2.03-1.67
			c3.72-3,11.14-8.48,9.21-3.13C487.36,242.04,487.62,251.65,487.62,251.65z"/>
		<path class="st26" d="M483.2,239.24c0,0-2.06,2.83-5.66,4.19l1.15-3.65c0,0,0.82-0.7,2.03-1.67l0.4-0.07L483.2,239.24z"/>
		<path class="st25" d="M472.97,223.3c0,0-3.1,15.52-0.65,18.12c2.46,2.6,13.93-2.18,13.93-2.18s8.97-8.39,8.34-15.96
			c-0.54-6.39-13.96-11.74-19.73-5.13C473.8,219.37,473.42,221.21,472.97,223.3z"/>
		<path class="st27" d="M471.75,212.87c0,0-2.53,7.98,3.45,10.87c3.97,1.91,8.5,2.34,8.5,4.3c-0.01,1.96,0.84,0.54,1.71,0.18
			c1.86-0.77,2.78,1.8,1.63,4.21c-0.87,1.84-0.77,4.72,2.02,5.42c0,0,3.14-4.11,4.72-6.93c1.25-2.23,4.48-10.07-0.75-11.78
			c-0.34-1.75-1.96-3.5-3.8-4.34c-5.01-2.3-9.71-1.61-13.31-1.46C474.28,213.42,472.48,209.97,471.75,212.87z"/>
		<path class="st25" d="M461.85,265.4c-1.87-0.75-4.58-1.99-7.43-3.34c-2.23-1.06-4.54-2.2-6.59-3.22
			c-3.81-1.88-6.77-3.39-6.77-3.39s2.47-7.6,4.06-7.93c0.94-0.19,8.04,1.11,13.63,2.19c1.19,0.23,2.32,0.45,3.3,0.66
			c2.16,0.41,3.61,0.71,3.61,0.71L461.85,265.4z"/>
		<path class="st25" d="M441.06,255.45c-3.57-1.8-5.05-4.13-8.92-11.52c-1.39-2.66-4.49-8.86-5.7-11.43l1.32-3.57
			c0.73,0.45,10.88,10.26,12.21,11.81c2.12,2.47,5.16,6.79,5.16,6.79C446.65,250.19,444.63,257.26,441.06,255.45z"/>
		<path class="st28" d="M474.93,252.78c-5.83-1.94-18.96-4.29-18.96-4.29s-3.59,8.07-3.73,13.96c4.24,2.67,14.87,5.92,14.87,5.92"/>
		<path class="st29" d="M490.43,288.38c-0.16,0.34-0.33,0.69-0.49,1.03c-0.85,1.68-1.67,3.37-2.4,5.08
			c-5.88,13.6-3.81,20.86-3.81,20.86c-9.66,1.26-25.82-3.58-25.82-3.58s0.04-1.38,0.01-2.46c-0.1-4.79-0.29-18.9,0.99-30.69
			c0.12-1,0.23-1.98,0.38-2.93c0.64-4.76,1.58-8.93,2.92-11.64c5.49-11.12,12.64-12.08,12.64-12.08c6.65,0.79,12.77-0.31,12.77-0.31
			C499.16,258.27,496.13,276.4,490.43,288.38z"/>
		<path class="st25" d="M440.59,273.63c0,0-0.49-7.98,0.87-8.86c0.81-0.53,7.89-1.92,13.48-2.95c1.2-0.23,2.33-0.43,3.32-0.6
			c2.15-0.41,3.61-0.66,3.61-0.66l1.7,14.73C457.06,275.25,440.59,273.63,440.59,273.63z"/>
		<path class="st25" d="M441.47,264.77c0,0-3.73-3.21-6.61-4.74c-1.8-0.95-8.69-3.64-13.51-5.8c-2.9-1.3-4.97-2.65-4.97-2.65
			l-1.49,2.31c0,0,6.9,6.81,13.19,12.28c6.29,5.47,8.53,7.09,12.51,7.47C444.57,274.01,443.86,266.69,441.47,264.77z"/>
		<path class="st28" d="M479.98,275.3c-7.26,4.14-18.56,3.52-21.06,3.32c0.12-1,0.23-1.98,0.38-2.93L479.98,275.3z"/>
		<path class="st29" d="M481.85,274.62c-9.03,3.72-23.39,1.74-23.39,1.74c-2.01-7.02-1.56-15.12-1.56-15.12
			c3.75-1.25,15.08-3.07,15.08-3.07s11.51-1.45,13.2,6.35C486.93,272.56,481.85,274.62,481.85,274.62z"/>
		<path class="st25" d="M415.67,254.65c0,0-0.97-1.01-2.12-0.99c-1.13,0.02-2.51-0.93-2.62-1.49c-0.11-0.56,1.57-3.26,1.87-3.44
			c0.3-0.18,1.81,0.97,2.31,1.14c0.5,0.18,0.41,1.15,2.03,2.17"/>
		<path class="st25" d="M415.82,251.03c0,0,0.06-0.72-0.49-1.84c-0.14-0.29-0.5-1.35-0.68-1.35c-0.18,0-0.42,0.23-0.49,0.5
			c-0.07,0.27,0.03,1.28,0.03,1.28"/>
		<path class="st28" d="M474.85,251.97l1.5-1.96c0,0,5.94,1.33,11.27,0.13l0,1.51l-4.74,0.99
			C482.89,252.63,479.03,253.5,474.85,251.97z"/>
		<path class="st30" d="M476.35,250.01l0.38,4.5c0,0,7.55-0.29,11.76-2.32l-0.85-2.58C487.63,249.61,483.51,250.73,476.35,250.01z"
			/>
		<path class="st20" d="M426.5,412.18c0,0-1.61,0.58-3.16,0.32c0,0-0.38-0.83-1.01-0.84c-0.63-0.01-1.4,0.86-1.82,1.06
			c-0.42,0.2-8.49,2.66-5.78,3.21c0.1,0.12,9.57,0.15,11.65,0.15c0.25,0,0.46-0.17,0.51-0.42
			C427.04,414.93,427.43,413.36,426.5,412.18z"/>
		<path class="st31" d="M472.93,257.48c0,0,3.19-1.44,6.79,0.23c4.12,1.9,6.87,5.5,5.46,11.31"/>
		<path class="st31" d="M484.06,254.03c0,0,0.6,3.23-1.93,5.14"/>
		<path class="st25" d="M421.59,226.88c0,0-0.09-3.66,0.77-4.64c0.87-0.98,2.52-1.09,2.74,0.22c0.22,1.3-3.12,3.36-3.12,3.36
			L421.59,226.88z"/>
		<path class="st25" d="M170.22,356.76c-1.34,10.02-6.78,48.72-6.78,48.72h-4.1c0,0-3.48-31.82-2.31-39.4
			c1.18-7.6,1.98-9.97,1.63-13.32c-0.04-0.38-1.79-8.05-3.23-14.37c-0.21-0.9-0.41-1.76-0.59-2.57c-0.75-3.27-1.32-5.71-1.32-5.71
			h16.73C170.25,330.11,170.58,354.1,170.22,356.76z"/>
		<path class="st26" d="M169.01,335.22c-4.74,2.04-13.19,3.11-13.58,3.16c-0.21-0.9-0.41-1.76-0.59-2.57l0.02-0.18l4.06-1.7
			C158.91,333.94,173.87,333.12,169.01,335.22z"/>
		<path class="st25" d="M163.44,405.48c0,0-0.12,1.01,0.31,1.76c0.43,0.76,1.71,4.14,4.37,6.31l0.33,0.89l-2.4,0.2
			c0,0-3.45-2.07-3.68-2.47c-0.23-0.39-1.12-2.12-1.38-2.66c-0.26-0.53-1.38-1.52-1.38-1.98c0-0.46-0.46-2.06-0.46-2.06
			s1.38-1.13,1.61-1.2c0.23-0.07,1.25-0.16,1.25-0.16L163.44,405.48z"/>
		<path class="st32" d="M159.24,404.55c0,0-1.75,2.44-1.51,4.89c0.15,1.52,0.81,4.46,0.8,6.64h0.56l0.92-4.93
			c0,0,4.07,4.48,4.99,4.7c0.92,0.22,4.64,0.22,4.83,0.22c0.2,0,3.09-0.65-1.71-2.53c0,0,0.03,0.95-1.87-0.03
			c-1.91-0.99-3.68-2.96-4.9-4.57C160.71,408.1,159.54,406.29,159.24,404.55z"/>
		<g>
			<path class="st25" d="M156.4,328.83c0,0,0,1.65-0.15,4.34c-0.05,0.77-0.09,1.63-0.17,2.55c-0.44,5.61-1.46,13.84-3.86,21.65
				c-2.97,9.67-15.95,47.34-15.95,47.34l-4.06-0.57c0,0,2.98-31.27,5.19-38.63s5.73-10.23,5.84-13.59c0.06-1.91-0.8-8.73-1.56-14.23
				c-0.25-1.85-0.48-3.55-0.67-4.87c-0.24-1.65-0.39-2.71-0.39-2.71L156.4,328.83z"/>
			<path class="st25" d="M136.28,404.7c0,0-0.26,0.98,0.06,1.79c0.32,0.81,1.12,4.34,3.46,6.85l0.2,0.92l-2.4-0.13
				c0,0-3.13-2.53-3.31-2.95c-0.17-0.42-0.82-2.26-1-2.82c-0.19-0.56-1.16-1.69-1.1-2.15c0.06-0.46-0.17-2.1-0.17-2.1
				s1.52-0.93,1.76-0.96c0.24-0.03,1.26,0.01,1.26,0.01L136.28,404.7z"/>
			<path class="st32" d="M132.25,403.21c0,0-2.07,2.17-2.17,4.64c-0.06,1.52,0.19,4.53-0.12,6.68l0.56,0.08l1.59-4.75
				c0,0,3.41,4.99,4.29,5.34c0.88,0.35,4.56,0.86,4.76,0.89c0.2,0.03,3.15-0.22-1.35-2.74c0,0-0.1,0.95-1.85-0.29
				c-1.75-1.24-3.24-3.44-4.22-5.2C133.21,406.92,132.3,404.96,132.25,403.21z"/>
		</g>
		<path class="st26" d="M157.08,335.05c-0.31,0.25-0.64,0.47-0.99,0.67c-4.41,2.58-12.07,2.16-14.4,1.97
			c-0.25-1.85-0.48-3.55-0.67-4.87c4.86-0.25,12.17-0.44,15.23,0.35C157.69,333.55,158.2,334.14,157.08,335.05z"/>
		<path class="st25" d="M189.11,242.27c0,0,0.13,5.14-1.5,6.37c-1.24,0.93-12.12,0.6-17.22,0.39c-1.6-0.07-2.63-0.12-2.63-0.12
			l0.61-5.04l0.57-4.69L189.11,242.27z"/>
		<path class="st25" d="M186.84,242.83c0,0,3.72-2.01,7.03-2.56c3.31-0.55,18.09-4.34,18.09-4.34l1.15,2.9c0,0-13.7,8.66-27.1,10.19
			L186.84,242.83z"/>
		<path class="st25" d="M211.97,235.92c0,0,0.81-0.67,1.15-1.39c0.34-0.72,0.95-1.72,1.96-2.07c1-0.35,1.78-0.86,2.06-0.74
			c0.28,0.11,0.19,0.77-0.38,1.02c-0.56,0.25-1.38,0.88-1.34,1.08c0.04,0.2,2.4-1.14,2.65-1.22c0.25-0.08,2.92-1.15,3.28-1.09
			c0.36,0.06,0.1,0.86-1.26,1.4c-1.03,0.4-1.6,0.93-1.52,1.18c0.08,0.26,1.03,1.11,0.16,2.56c-0.88,1.45-1.76,2.1-2.89,2.23
			c-1.13,0.13-2.26-0.08-3.11,0.18"/>
		<path class="st29" d="M173.84,239.69c0,0,0,6.94-0.91,9.76c0,0-2.59,0.2-6.22-0.08c-1.28-0.09-2.69-0.24-4.16-0.48
			c-0.63-0.11-1.27-0.23-1.93-0.36v-11.46C160.63,237.07,168.16,237.73,173.84,239.69z"/>
		<path class="st28" d="M166.72,249.36c-1.28-0.09-2.69-0.24-4.16-0.48l-0.32-0.48l0.82-3.52
			C163.05,244.89,164.99,247.32,166.72,249.36z"/>
		<path class="st29" d="M166.78,286.01c0,0-9.08,5.98-27.1,0.52c0,0,2.93-10.35,1.94-17.12c-0.27-1.87-1.3-4.73-2.65-7.91
			c-0.83-1.94-1.76-3.97-2.73-5.98c-1.66-3.46-3.37-6.78-4.63-9.16c-1.07-2.05-0.13-4.56,2.02-5.41c4.88-1.95,14.18-4.67,26.99-3.88
			c0.78,1.79,2.15,7.82,2.93,8.96c3.86,5.67,3.38,6.28,2.57,10.52C164.96,262.49,163.83,277.01,166.78,286.01z"/>
		<path class="st28" d="M140.29,251.69c0,0-0.48,5.67-1.31,9.8c-0.83-1.94-1.76-3.97-2.73-5.98L140.29,251.69z"/>
		<path class="st5" d="M140.8,285.12c0,0-3.2,2.7-4.3,11.96s4.3,37.92,4.3,37.92s8.27,3.97,29.87,0c0,0,0.44-34.94-4.41-50.87
			L140.8,285.12z"/>
		<path class="st25" d="M143.51,234.94c0,0-1.98,3.54-3.33,3.9c0,0,6.28,2.49,10.32,2.15c4.04-0.34,6.08-4.06,6.08-4.06
			s-3.29-0.34-3.74-4.09"/>
		<path class="st25" d="M153.28,227.46c0,0-0.08,0.91-0.16,1.81c-0.08,0.78-0.15,1.54-0.16,1.71c-0.18,1.9-0.11,3.41-0.38,5.95
			l-9.06-1.98c0,0,1.61-1.72,0.53-10.42l9.07,2.88L153.28,227.46z"/>
		<path class="st26" d="M153.28,227.46c0,0-0.08,0.91-0.16,1.81c-1.96,0.05-4.22-0.38-4.22-0.38l4.22-1.49L153.28,227.46z"/>
		<path class="st33" d="M145.84,204.55c0,0,2.75-2.01,5.02-0.28c2.27,1.74,2.55,5.34,1.44,7.79c-1.11,2.45-6.81-5.11-6.81-5.11"/>
		<path class="st25" d="M158.01,225.51c0.05,0.76-0.43,1.46-1.14,1.73c-2.09,0.79-6.67,2.18-11.52,1.47
			c-5.98-0.87-11.77-17.28,0.28-22.84C147.97,204.8,157.19,212.1,158.01,225.51z"/>
		<path class="st33" d="M131.8,216.37c0,0-2.08,0.49-2.62,1.73c0,0,2.53-1.12,3.63-0.21"/>
		<path class="st33" d="M133.71,216.88c0,0-4.53,1.12-7.29-1.98c-3.81-4.28,3.47-13.21,9.42-4.91"/>
		<path class="st29" d="M132.43,218.38c0,0-0.77-0.27-1.01-1.18c-0.34-1.31-0.56-5.34,3-8.89c0,0,0.93-0.84,1.57-0.34"/>
		<path class="st33" d="M144.36,230.01c0,0-9.88-2.79-12.24-12.3c-2.36-9.51,11.99-18.88,18.03-9.83c0,0-4.28,0.91-5.45,4.08
			c-1.17,3.17-0.43,7.78-1.68,6.99c-1.29-0.81-3.13,0.23-2.85,2.04c0.23,1.48,2.53,3.27,3.7,5.27
			C144.57,227.47,144.73,229.15,144.36,230.01z"/>
		<path class="st33" d="M150.17,206.19c0,0,4.63,4.71-5.1,9.38c0.49-1.85-2.15-6.36-2.15-6.36"/>
		<g>
			<path class="st32" d="M107.79,280.84l40.38-9.67c0.39-0.09,0.78,0.15,0.87,0.53l6.57,27.46c0.09,0.39-0.15,0.78-0.53,0.87
				l-40.38,9.67c-0.39,0.09-0.78-0.15-0.87-0.53l-6.57-27.46C107.17,281.32,107.41,280.93,107.79,280.84z"/>
			
				<rect x="112.16" y="277.12" transform="matrix(-0.9725 0.2329 -0.2329 -0.9725 326.8918 542.2797)" class="st6" width="38.56" height="26.63"/>
			
				<rect x="149.37" y="281.72" transform="matrix(0.972 -0.2349 0.2349 0.972 -63.1786 43.35)" class="st34" width="1.97" height="10.23"/>
		</g>
		<path class="st25" d="M131.62,276.34c0,0-5.08-0.79-6-2.61c-0.7-1.38,1.56-12.03,2.67-17.02c0.35-1.56,0.59-2.57,0.59-2.57
			l4.85,1.49l4.51,1.39L131.62,276.34z"/>
		<path class="st25" d="M131.47,274.01c0,0,1.32,4.02,1.27,7.38c-0.04,3.36,1.06,18.58,1.06,18.58l-3.05,0.62
			c0,0-6.09-15.02-5.21-28.48L131.47,274.01z"/>
		<path class="st25" d="M130.76,300.58c0,0,0.27,3.22,0.8,4.4c1.36,3.01,5.2,0.14,5.63-0.67c0,0-1.11,0.13-1.9-2.01
			c-0.26-0.72-1.04-1.24-1.2-1.43c-0.16-0.18-0.28-0.91-0.28-0.91"/>
		<path class="st29" d="M131.43,243.2c0,0-2.66,9.13-3.46,14.93c0,0,4.15,1.89,9.66,2.05c0,0,2.09-5.13,2.9-9.78"/>
		<path class="st29" d="M319.27,86.41H270.7c0,0,0.02-0.67,0.48-1.7c2.77-4.07,4.24-6.07,6.85-8.72c5.04-1.54,7.62-1.88,15.19-3.11
			l8.55-0.55c0,0,10.86,2.52,14.51,5.13C318.15,79.58,319.38,82.47,319.27,86.41z"/>
		<path class="st28" d="M303.17,86.41H270.7c0,0,0.03-0.67,0.48-1.7c1.19-0.38,2.69-0.33,3.85-0.03C276.21,85,277,85.2,277,85.2
			s17.02,0,21.12,0C302.25,85.2,303.17,86.41,303.17,86.41z"/>
		<path class="st25" d="M299.56,64.39c0,0,0.41-2.33,0.14-3.74c-0.27-1.41-1.57-3.29-1.7-3.31s-1.83,0.38-1.8,0.45
			c0.03,0.07,0,2.53,0,2.53s0.61,3.54,0.79,3.9c0.18,0.36,0.91,1.79,1,1.81c0.09,0.02,0.83-0.27,0.83-0.27L299.56,64.39z"/>
		<path class="st25" d="M295.15,77.16c-1.3,0.08-2.49-0.81-2.79-2.08c-0.1-0.43-0.36-1.04-0.68-1.72c-0.36-0.81-0.79-1.69-1.07-2.42
			l2.85-2.08l6.08-4.47c0,0,0.76,5.7,2.21,7.94C301.77,72.33,302.25,76.76,295.15,77.16z"/>
		<path class="st26" d="M296.55,67.83c-0.17,0.27-2.68,4.06-4.86,5.53c-0.36-0.81-0.79-1.69-1.07-2.42l2.85-2.08L296.55,67.83z"/>
		<path class="st25" d="M298.45,61.76c0.13,1.32,0.17,2.51,0.08,3.37c-0.01,0.11-0.03,0.24-0.06,0.36
			c-0.02,0.11-0.04,0.24-0.08,0.37c-0.96,3.81-12.75,8.19-13.11,7.96c-6.58-4.23-8.87-19.91-8.18-20.95
			c0.75-1.14,10.09-2.23,10.28-2.24c0.19-0.02,9.17,0.63,9.17,0.63S298,57.28,298.45,61.76z"/>
		<path class="st27" d="M272.8,49.19c0,0,0.29,6.84,11.53,4.11c3.09-0.75,5.81-1.45,7.34-0.63c2.3,7.23,2.37,10.7,3.19,10.42
			c1.02-0.36-1.74-6.36,1.78-5.71c2.69,0.5,2.92,7.02,2.92,7.02s0.23,0.53,0.32-0.99c0.06-0.91,0.68-15.58-1.55-18.65
			c-2.23-3.08-5.41-1.22-5.41-1.22s0.19-7.42-10.45-1.95c-6.14,3.16-9.11,1.01-9.1,1.2C273.4,42.98,272.33,44.9,272.8,49.19z"/>
		<path class="st25" d="M287.99,135.58c0,0-0.73,0.86-1.37,1.36c-0.64,0.5-0.91,0.5-1.81,0.73c-0.91,0.23-1.68,1.17-1.95,1.49
			c-0.26,0.32,0,0.47,0.56,0.35c0.56-0.12,1.27-0.56,1.51-0.56c0.23,0,0.23,0.28,0,0.8c-0.23,0.52-0.88,1.36-1.26,1.66
			c-0.38,0.29-1.43,0.88-1.55,1.23c-0.12,0.35-0.03,0.53,0.53,0.35c0.56-0.18,1.2-0.64,1.87-1c0.36-0.19,0.53-0.4,0.71-0.55
			c0.22,0.06,1,0.24,1.55,0.16c0.28-0.04,0.53-0.18,0.73-0.32c0.08-0.02,0.16-0.03,0.23-0.05c0.5-0.2,0.76-1.93,1.02-2.4
			c0.26-0.47,2.48-2.17,2.48-2.17L287.99,135.58z"/>
		<path class="st25" d="M274.71,89.75c-0.29-0.03-0.68-0.33-1.17-0.86c-0.16-0.16-0.38-0.43-0.62-0.71c-0.22-0.16-0.43-0.3-0.6-0.41
			c-0.38-0.27-0.78-0.3-0.92-0.3c-0.03,0-0.05,0-0.05,0v-0.02c-2.3-0.05-3.33-1.05-6.15-1.05c0,0,6.59-3.17,10.57-0.92
			c0.41,0.06,1.19,0.17,1.68,0.17c1.16,0.02,0.82,0.6,0.46,0.79c-0.13,0.05-0.44,0.1-0.78,0.14c0.02,0.02,0.03,0.03,0.06,0.06
			c0.17,0.19,0.33,0.38,0.48,0.55c0.51,0.62,1.19,1.43,1.32,1.55c0.17,0.21,0.06,0.33,0.06,0.33
			C279.3,89.48,276.75,90.76,274.71,89.75z"/>
		<linearGradient id="SVGID_1_" gradientUnits="userSpaceOnUse" x1="275.7681" y1="86.0427" x2="278.2493" y2="86.0427">
			<stop  offset="0" style="stop-color:#F7941E"/>
			<stop  offset="1" style="stop-color:#F7941E;stop-opacity:0"/>
		</linearGradient>
		<path class="st35" d="M277.91,86.45c-0.13,0.05-0.44,0.1-0.78,0.14c0,0-0.97-0.9-1.36-1.11c0.41,0.06,1.19,0.17,1.68,0.17
			C278.6,85.68,278.27,86.26,277.91,86.45z"/>
		<path class="st25" d="M311.43,119c0,0-7.2-1.07-7.74-2.45c-0.32-0.82-0.22-7.39-0.09-12.57c0.02-1.11,0.06-2.16,0.09-3.07
			c0.04-1.99,0.09-3.35,0.09-3.35l13.46,1.26C315.98,104.62,311.43,119,311.43,119z"/>
		<path class="st25" d="M303.69,116.55c0,0-3.57,2.72-5.47,5c-1.19,1.43-4.89,7.06-7.73,10.95c-1.7,2.34-3.3,3.93-3.3,3.93
			l1.78,1.76c0,0,7.37-4.86,13.44-9.44c6.07-4.58,7.93-6.27,9.02-9.75C312.51,115.53,305.86,114.78,303.69,116.55z"/>
		<path class="st29" d="M303.17,86.41l0.45,12.32c0,0,7.26,2.54,13.79,0.99c0,0,4.12-9.75,0.85-19.08"/>
		<line class="st18" x1="290.77" y1="109.93" x2="290.77" y2="84.03"/>
	</g>
</g>
<g id="DESIGNED_BY_FREEPIK" class="st0">
</g>
</svg>
