<?xml version="1.0" encoding="utf-8"?>
<!-- Generator: Adobe Illustrator 24.1.3, SVG Export Plug-In . SVG Version: 6.00 Build 0)  -->
<svg version="1.1" id="Layer_1" xmlns="http://www.w3.org/2000/svg" xmlns:xlink="http://www.w3.org/1999/xlink" x="0px" y="0px"
	 viewBox="0 0 600 534" style="enable-background:new 0 0 600 534;" xml:space="preserve">
<style type="text/css">
	.st0{fill:#EAEAEE;}
	.st1{opacity:0.73;fill:#CAC7D1;}
	.st2{fill:#FFB031;}
	.st3{fill:#FF9433;}
	.st4{fill:#FF7733;}
	.st5{fill:#414255;}
	.st6{fill:#7A4C08;}
	.st7{fill:#FFFFFF;}
	.st8{fill:#E6E8E8;}
	.st9{fill:#CAC7D1;}
	.st10{fill:#D9DBDB;}
	.st11{fill:#3A3B4E;}
</style>
<ellipse transform="matrix(0.7071 -0.7071 0.7071 0.7071 -113.1888 293.6762)" class="st0" cx="297.9" cy="283.5" rx="192.8" ry="192.8"/>
<path class="st1" d="M455.3,329.8v64.8c-7.1,10-15.1,19.3-23.9,27.8v-92.6h0v-0.2c-0.1-0.5-11.7-10.1-20.7-17.4v-4l10.8-2.8
	c4.5-1.1,9.1-0.8,13.3,1c1.9,0.8,3.8,1.6,5.8,2.2v8.5c8.9,7.3,14.6,12.1,14.7,12.6L455.3,329.8L455.3,329.8z"/>
<g>
	<polygon class="st2" points="23.5,36.1 80.1,168.9 121.5,140.6 145.4,175.4 149.7,116.7 199.8,86.2 	"/>
	<polygon class="st3" points="130.6,134.3 80.1,168.9 121.5,140.6 145.4,175.4 149.7,116.7 70,69.2 	"/>
	<polygon class="st4" points="148.7,131.1 70,69.2 149.7,116.7 	"/>
</g>
<g>
	<path class="st5" d="M146.4,192c-0.4-2.6-1-5.2-1.7-7.7l3.9-1c0.7,2.6,1.3,5.3,1.8,8L146.4,192z"/>
	<path class="st5" d="M99.6,282.1c-5.8-0.4-11.4-2.2-16.1-5.4l2.2-3.3c4.1,2.7,9,4.4,14.2,4.7L99.6,282.1z M116.3,278.8l-1.8-3.6
		c4.2-2.1,8.2-5.2,12-9.5l3,2.7C125.4,273.1,120.9,276.6,116.3,278.8z M72.3,263.9c-2.3-4.6-3.5-9.6-3.5-14.6c0-0.4,0-0.8,0-1.2
		l0-0.9l4,0.3l0,0.7c0,0.4,0,0.7,0,1.1c0,4.3,1.1,8.8,3,12.8L72.3,263.9z M227.7,263l0-4c5.2,0,10.6-0.2,16-0.6l0.3,4
		C238.5,262.7,233,263,227.7,263z M211.4,262.5l-2.6-0.2c-4.9-0.4-9.4-1-13.7-1.7l0.7-4c4.1,0.7,8.5,1.3,13.3,1.7l2.5,0.2
		L211.4,262.5z M260.1,260.6l-0.5-4c5.2-0.7,10.5-1.6,15.8-2.6l0.8,3.9C270.7,259,265.3,259.9,260.1,260.6z M179.2,256.6
		c-4.7-1.6-9.1-3.6-13.2-5.8c-0.6-0.4-1.3-0.7-1.9-1.1l2.1-3.4c0.6,0.4,1.2,0.7,1.8,1c3.8,2.1,8,4,12.5,5.5L179.2,256.6z M139.1,255
		l-3.5-2c2.6-4.5,4.8-9.3,6.6-14.3l3.8,1.4C144.1,245.2,141.8,250.2,139.1,255z M292,254.5l-0.9-3.9c5-1.2,10.2-2.6,15.5-4.1
		l1.1,3.9C302.4,251.9,297.1,253.3,292,254.5z M323.2,245.6l-1.2-3.8c5.1-1.7,10.2-3.4,15.2-5.2l1.3,3.8
		C333.5,242.2,328.4,244,323.2,245.6z M150.7,240.4c-3.7-2.7-7.7-5.5-12-7.9l-1.3-0.7l1.8-3.6c0.5,0.2,1,0.5,1.4,0.8
		c4.5,2.5,8.8,5.5,12.4,8.1L150.7,240.4z M78.5,234.3l-2.8-2.9c3.5-3.5,8.4-6.1,14.8-7.9l1.3,3.8C86,229,81.5,231.4,78.5,234.3z
		 M122.8,226.5c-4.6-1-9.2-1.5-13.9-1.5l-1.6,0l-0.1-4c5.5-0.1,11.1,0.4,16.5,1.6L122.8,226.5z M150.3,224.1l-4-0.7
		c0.9-5.2,1.4-10.5,1.4-15.7l4,0C151.7,213.2,151.2,218.7,150.3,224.1z"/>
	<path class="st5" d="M353.9,234.8l-1.4-3.8c2.5-1,5-1.9,7.5-2.9l1.5,3.7C358.9,232.8,356.4,233.8,353.9,234.8z"/>
</g>
<path class="st5" d="M480.3,332.6c-2,0-3.8-1.6-4-3.6c-0.2-2.2,1.4-4.2,3.6-4.4c24.3-2.4,46.6-13.9,62.9-32.6c1.5-1.7,4-1.8,5.7-0.4
	c1.7,1.5,1.9,4,0.4,5.7c-17.6,20.2-41.8,32.8-68.1,35.3C480.6,332.6,480.5,332.6,480.3,332.6z"/>
<path class="st6" d="M431.4,329.8l-139.9,82.5l-139.9-82.5c0-0.1,0-0.2,0-0.2c0.1-0.5,7.8-7,19.6-16.5c0.1-0.1,0.2-0.2,0.3-0.3
	c38.6-31.4,119.9-95.6,119.9-95.6s81.3,64.2,119.9,95.6c12,9.7,19.8,16.3,19.9,16.8C431.4,329.6,431.4,329.7,431.4,329.8z"/>
<path class="st7" d="M349,148.9H198.1c-12.9,0-23.4,10.5-23.4,23.4v228.2c0,12.9,10.5,23.4,23.4,23.4h189.1
	c12.9,0,23.4-10.5,23.4-23.4v-190L349,148.9z"/>
<path class="st8" d="M349,187c0,12.9,10.5,23.4,23.4,23.4h38.2L349,148.9V187z"/>
<path class="st9" d="M276.4,187.4h-63.4c-1.5,0-2.7,1.2-2.7,2.7v63.4c0,1.5,1.2,2.7,2.7,2.7h63.4c1.5,0,2.7-1.2,2.7-2.7v-63.4
	C279.1,188.6,277.9,187.4,276.4,187.4z"/>
<path class="st10" d="M342.1,275.3H217.2c-3.7,0-6.7,3-6.7,6.7l0,0c0,3.7,3,6.7,6.7,6.7h124.9c3.7,0,6.7-3,6.7-6.7l0,0
	C348.9,278.3,345.8,275.3,342.1,275.3z"/>
<path class="st10" d="M342.1,308.8H217.2c-3.7,0-6.7,3-6.7,6.7l0,0c0,3.7,3,6.7,6.7,6.7h124.9c3.7,0,6.7-3,6.7-6.7l0,0
	C348.9,311.8,345.8,308.8,342.1,308.8z"/>
<path class="st10" d="M285.4,341.3h-68.2c-3.7,0-6.7,3-6.7,6.7l0,0c0,3.7,3,6.7,6.7,6.7h68.2c3.7,0,6.7-3,6.7-6.7l0,0
	C292.1,344.4,289.1,341.3,285.4,341.3z"/>
<path class="st2" d="M431.4,329.8V464c0,9.4-7.7,17-17,17H168.6c-9.4,0-17-7.7-17-17V329.8l139.9,82.5L431.4,329.8z"/>
<path class="st3" d="M426.7,475.7l-90-90l-45.1,26.6l-45.1-26.6l-90,90c3.1,3.3,7.5,5.3,12.3,5.3h245.7
	C419.2,481.1,423.6,479,426.7,475.7z"/>
<g>
	<path class="st5" d="M459.7,145.6c-40.3,4-72.4,37.1-75.3,77.5c-1.4,20.1,4.3,38.7,14.7,53.8c3.9,5.7,4.6,13,1.9,19.4l-6.6,16
		l27.1-7c4.4-1.1,9.1-0.8,13.3,1c12.6,5.5,26.8,7.9,41.7,6.5c39.5-3.8,71.5-35.7,75.3-75.3C556.9,184.5,512.7,140.4,459.7,145.6z"/>
	<g>
		<path class="st7" d="M470.3,271.7l4.6-4.6c0,0-3.7-8.6,11.7-23.2c9.2-8.7,11.2-17.1,10.5-24c-1.2-10.9-10.1-19.9-21.1-21.1
			c-6.9-0.7-15.3,1.3-24,10.5c-14.6,15.4-23.2,11.7-23.2,11.7l-4.6,4.6L470.3,271.7z"/>
		<path class="st7" d="M434.6,243.4c-3.7,5-3.2,12,1.3,16.5s11.5,4.9,16.5,1.3L434.6,243.4z"/>
		<path class="st7" d="M500.3,204.4l-2.9,2.9c-2.2-3.6-5.3-6.6-8.9-8.8l2.9-2.9c2.5-2.5,6.4-2.5,8.9,0
			C502.7,198,502.7,202,500.3,204.4z"/>
	</g>
</g>
<path class="st11" d="M465.9,145.2c29.9,9,51.8,36.7,51.8,69.5c0,40.1-32.5,72.6-72.6,72.6c-21.1,0-40.1-9.1-53.4-23.5
	c2.1,4.6,4.5,8.9,7.4,13c3.9,5.7,4.6,13,1.9,19.4l-6.6,16l27.1-7c4.4-1.1,9.1-0.8,13.3,1c12.6,5.5,26.8,7.9,41.7,6.5
	c39.5-3.8,71.5-35.7,75.3-75.3C556.7,186.6,516.1,143.9,465.9,145.2z"/>
<path class="st2" d="M28.3,75.5l18.3,42.1c0.9,2.1-0.1,4.6-2.2,5.6l-0.7,0.3c-2.2,0.9-4.7-0.1-5.6-2.2L20.6,78.8
	c-0.9-2.2,0.2-4.8,2.4-5.6l0,0C25.1,72.4,27.4,73.4,28.3,75.5z"/>
<g>
	<path class="st0" d="M100.2,371.8c-7.5,0-13.5,6-13.5,13.5c0,7.5,6,13.5,13.5,13.5c7.5,0,13.5-6,13.5-13.5
		C113.7,377.9,107.7,371.8,100.2,371.8z M100.2,390.8c-3,0-5.5-2.4-5.5-5.5c0-3,2.4-5.5,5.5-5.5c3,0,5.5,2.4,5.5,5.5
		C105.7,388.3,103.2,390.8,100.2,390.8z"/>
	<path class="st0" d="M461.7,426.4c-7.5,0-13.5,6-13.5,13.5s6,13.5,13.5,13.5c7.5,0,13.5-6,13.5-13.5S469.2,426.4,461.7,426.4z
		 M461.7,445.4c-3,0-5.5-2.4-5.5-5.5c0-3,2.4-5.5,5.5-5.5c3,0,5.5,2.4,5.5,5.5C467.2,442.9,464.7,445.4,461.7,445.4z"/>
	<path class="st0" d="M572.1,216.9c-5.7,0-10.3,4.6-10.3,10.3c0,5.7,4.6,10.3,10.3,10.3c5.7,0,10.3-4.6,10.3-10.3
		C582.4,221.5,577.8,216.9,572.1,216.9z M572.1,231.4c-2.3,0-4.2-1.9-4.2-4.2c0-2.3,1.9-4.2,4.2-4.2c2.3,0,4.2,1.9,4.2,4.2
		C576.3,229.5,574.4,231.4,572.1,231.4z"/>
	<path class="st0" d="M390.2,51.7c-6,0-10.9,4.9-10.9,10.9c0,6,4.9,10.9,10.9,10.9c6,0,10.9-4.9,10.9-10.9
		C401.1,56.5,396.2,51.7,390.2,51.7z M390.2,67c-2.4,0-4.4-2-4.4-4.4c0-2.4,2-4.4,4.4-4.4c2.4,0,4.4,2,4.4,4.4
		C394.6,65,392.7,67,390.2,67z"/>
	<path class="st0" d="M40.9,306.1c-6.3,0-11.5,5.1-11.5,11.5c0,6.3,5.1,11.5,11.5,11.5c6.3,0,11.5-5.1,11.5-11.5
		C52.4,311.2,47.2,306.1,40.9,306.1z"/>
	<path class="st0" d="M501.5,344.1c-4.6,0-8.4,3.7-8.4,8.4c0,4.6,3.7,8.4,8.4,8.4c4.6,0,8.4-3.7,8.4-8.4
		C509.9,347.9,506.2,344.1,501.5,344.1z"/>
	<path class="st0" d="M225,55.1c-6.7,0-12.2,5.5-12.2,12.2s5.5,12.2,12.2,12.2c6.7,0,12.2-5.5,12.2-12.2S231.7,55.1,225,55.1z"/>
	<path class="st0" d="M290.3,497.2c-4.9,0-8.9,4-8.9,8.9c0,4.9,4,8.9,8.9,8.9c4.9,0,8.9-4,8.9-8.9
		C299.2,501.2,295.2,497.2,290.3,497.2z"/>
	<path class="st0" d="M462.5,102.2c-5.8,0-10.4,4.7-10.4,10.4c0,5.8,4.7,10.4,10.4,10.4c5.8,0,10.4-4.7,10.4-10.4
		C472.9,106.8,468.3,102.2,462.5,102.2z"/>
	<circle class="st0" cx="92.7" cy="189.3" r="5.9"/>
	<path class="st0" d="M575.7,164.8c-5.6,0-10.1,4.5-10.1,10.1c0,5.6,4.5,10.1,10.1,10.1c5.6,0,10.1-4.5,10.1-10.1
		C585.8,169.4,581.3,164.8,575.7,164.8z"/>
	<circle class="st0" cx="35.2" cy="224.9" r="6.5"/>
	<path class="st0" d="M307.1,33.4l4.1-4.1c1.4-1.4,1.4-3.7,0-5.1c-1.4-1.4-3.7-1.4-5.1,0l-4.1,4.1l-4.1-4.1c-1.4-1.4-3.7-1.4-5.1,0
		c-1.4,1.4-1.4,3.7,0,5.1l4.1,4.1l-4.1,4.1c-1.4,1.4-1.4,3.7,0,5.1c1.4,1.4,3.7,1.4,5.1,0l4.1-4.1l4.1,4.1c1.4,1.4,3.7,1.4,5.1,0
		c1.4-1.4,1.4-3.7,0-5.1L307.1,33.4z"/>
	<path class="st0" d="M30.6,156.2l4.1-4.1c1.4-1.4,1.4-3.7,0-5.1c-1.4-1.4-3.7-1.4-5.1,0l-4.1,4.1l-4.1-4.1c-1.4-1.4-3.7-1.4-5.1,0
		c-1.4,1.4-1.4,3.7,0,5.1l4.1,4.1l-4.1,4.1c-1.4,1.4-1.4,3.7,0,5.1c1.4,1.4,3.7,1.4,5.1,0l4.1-4.1l4.1,4.1c1.4,1.4,3.7,1.4,5.1,0
		c1.4-1.4,1.4-3.7,0-5.1L30.6,156.2z"/>
	<path class="st0" d="M509.7,404.2l3.4-3.4c1.2-1.2,1.2-3.1,0-4.3c-1.2-1.2-3.1-1.2-4.3,0l-3.4,3.4l-3.4-3.4c-1.2-1.2-3.1-1.2-4.3,0
		c-1.2,1.2-1.2,3.1,0,4.3l3.4,3.4l-3.4,3.4c-1.2,1.2-1.2,3.1,0,4.3c1.2,1.2,3.1,1.2,4.3,0l3.4-3.4l3.4,3.4c1.2,1.2,3.1,1.2,4.3,0
		c1.2-1.2,1.2-3.1,0-4.3L509.7,404.2z"/>
</g>
</svg>
