<?xml version="1.0" encoding="utf-8"?>
<!-- Generator: Adobe Illustrator 24.1.3, SVG Export Plug-In . SVG Version: 6.00 Build 0)  -->
<svg version="1.1" id="Layer_1" xmlns="http://www.w3.org/2000/svg" xmlns:xlink="http://www.w3.org/1999/xlink" x="0px" y="0px"
	 viewBox="0 0 500 500" style="enable-background:new 0 0 500 500;" xml:space="preserve">
<style type="text/css">
	.st0{opacity:0.5;}
	.st1{fill:#414255;}
	.st2{fill:#FFFFFF;}
</style>
<g class="st0">
	<rect class="st1" width="500" height="500"/>
</g>
<g>
	<circle class="st2" cx="249.88" cy="256.34" r="11.11"/>
	<path class="st2" d="M266.11,228.22l-0.71-3.55c-0.38-1.92-2.08-3.31-4.04-3.31H238.4c-1.95,0-3.65,1.39-4.04,3.31l-0.71,3.55
		H266.11z"/>
	<path class="st2" d="M278.83,232.34c-4.83,0-55.63,0-57.89,0c-3.4,0-6.17,2.77-6.17,6.17v35.67c0,3.4,2.77,6.17,6.17,6.17h57.89
		c3.4,0,6.17-2.77,6.17-6.17v-35.67C285,235.11,282.23,232.34,278.83,232.34z M232.32,245.23h-6.59c-1.14,0-2.06-0.92-2.06-2.06
		c0-1.14,0.92-2.06,2.06-2.06h6.59c1.14,0,2.06,0.92,2.06,2.06C234.38,244.31,233.46,245.23,232.32,245.23z M249.88,271.57
		c-8.4,0-15.23-6.83-15.23-15.23c0-8.4,6.83-15.23,15.23-15.23c8.4,0,15.23,6.83,15.23,15.23
		C265.11,264.74,258.28,271.57,249.88,271.57z"/>
</g>
</svg>
